<svg width="144" height="39" viewBox="0 0 144 39" fill="none" xmlns="http://www.w3.org/2000/svg">
<path d="M18.1245 1.71532C18.8722 -0.571769 22.1278 -0.571775 22.8755 1.71531L26.0026 11.2807C26.3369 12.3035 27.2959 12.996 28.378 12.996H38.4975C40.9171 12.996 41.9231 16.0732 39.9656 17.4867L31.7788 23.3984C30.9034 24.0306 30.5371 25.1511 30.8714 26.1739L33.9985 35.7392C34.7462 38.0263 32.1124 39.9281 30.155 38.5146L21.9681 32.6029C21.0927 31.9708 19.9073 31.9708 19.0319 32.6029L10.845 38.5146C8.88756 39.9281 6.25377 38.0263 7.00147 35.7392L10.1286 26.1739C10.4629 25.1511 10.0966 24.0306 9.22122 23.3984L1.03438 17.4867C-0.923106 16.0732 0.0829033 12.996 2.50249 12.996H12.622C13.7041 12.996 14.6631 12.3035 14.9974 11.2807L18.1245 1.71532Z" fill="white"/>
<path d="M26.1245 1.71532C26.8722 -0.571769 30.1278 -0.571775 30.8755 1.71531L34.0026 11.2807C34.3369 12.3035 35.2959 12.996 36.378 12.996H46.4975C48.9171 12.996 49.9231 16.0732 47.9656 17.4867L39.7788 23.3984C38.9034 24.0306 38.5371 25.1511 38.8714 26.1739L41.9985 35.7392C42.7462 38.0263 40.1124 39.9281 38.155 38.5146L29.9681 32.6029C29.0927 31.9708 27.9073 31.9708 27.0319 32.6029L18.845 38.5146C16.8876 39.9281 14.2538 38.0263 15.0015 35.7392L18.1286 26.1739C18.4629 25.1511 18.0966 24.0306 17.2212 23.3984L9.03438 17.4867C7.07689 16.0732 8.0829 12.996 10.5025 12.996H20.622C21.7041 12.996 22.6631 12.3035 22.9974 11.2807L26.1245 1.71532Z" fill="white" fill-opacity="0.75"/>
<path d="M71.9922 4.875C72.4023 4.875 72.7578 5.02539 73.0586 5.32617C73.3867 5.62695 73.5508 5.99609 73.5508 6.43359V20.748C73.5508 23.6738 72.8125 25.834 71.3359 27.2285C70.1875 28.2949 68.6152 28.8281 66.6191 28.8281C64.9785 28.8281 63.4883 28.4453 62.1484 27.6797C61.6562 27.4062 61.4102 27.0508 61.4102 26.6133C61.4102 26.1484 61.5195 25.7793 61.7383 25.5059C61.9844 25.2324 62.2578 25.0957 62.5586 25.0957C62.8594 25.0957 63.1738 25.1641 63.502 25.3008C64.3496 25.7109 65.1699 25.9297 65.9629 25.957C66.7559 25.957 67.3984 25.9023 67.8906 25.793C68.3828 25.6562 68.8203 25.4102 69.2031 25.0547C70.0508 24.2344 70.4746 22.8809 70.4746 20.9941V6.43359C70.4746 6.02344 70.625 5.66797 70.9258 5.36719C71.2266 5.03906 71.582 4.875 71.9922 4.875ZM92.2129 11.1914C92.6504 11.1914 93.0059 11.3418 93.2793 11.6426C93.5801 11.9434 93.7305 12.2578 93.7305 12.5859C93.7305 12.9141 93.6895 13.1602 93.6074 13.3242L84.4609 35.3496C84.1875 36.0605 83.7227 36.416 83.0664 36.416C82.6836 36.416 82.3418 36.2656 82.041 35.9648C81.7676 35.6641 81.6309 35.3633 81.6309 35.0625C81.6309 34.7891 81.6582 34.5566 81.7129 34.3652L83.8867 28.7461L77.5703 13.3652C77.4883 13.1465 77.4473 12.8867 77.4473 12.5859C77.4473 12.2578 77.584 11.9434 77.8574 11.6426C78.1582 11.3418 78.4863 11.1914 78.8418 11.1914C79.5801 11.1914 80.0859 11.5059 80.3594 12.1348L85.5273 24.9727L90.8184 12.1758C91.0918 11.4922 91.5566 11.1641 92.2129 11.1914ZM105.748 13.8574C103.779 13.8574 101.934 14.9375 100.211 17.0977V27.1465C100.211 27.5566 100.061 27.9121 99.7598 28.2129C99.459 28.5137 99.1035 28.6641 98.6934 28.6641C98.2832 28.6641 97.9277 28.5137 97.627 28.2129C97.3262 27.9121 97.1758 27.5566 97.1758 27.1465V12.75C97.1758 12.3125 97.3125 11.9434 97.5859 11.6426C97.8867 11.3418 98.2559 11.1914 98.6934 11.1914C99.1035 11.1914 99.459 11.3418 99.7598 11.6426C100.061 11.916 100.211 12.2852 100.211 12.75V14.1445C101.113 13.2148 101.893 12.5449 102.549 12.1348C103.807 11.3965 105.01 11.0273 106.158 11.0273C107.334 11.0273 108.291 11.2051 109.029 11.5605C109.768 11.8887 110.396 12.3672 110.916 12.9961C111.955 14.2266 112.475 15.7578 112.475 17.5898V27.1465C112.475 27.5566 112.324 27.9121 112.023 28.2129C111.723 28.5137 111.367 28.6641 110.957 28.6641C110.547 28.6641 110.191 28.5137 109.891 28.2129C109.59 27.9121 109.439 27.5566 109.439 27.1465V17.918C109.439 16.6602 109.152 15.6758 108.578 14.9648C108.004 14.2266 107.061 13.8574 105.748 13.8574ZM117.725 12.75C117.725 12.2852 117.875 11.916 118.176 11.6426C118.477 11.3418 118.846 11.1914 119.283 11.1914C119.721 11.1914 120.076 11.3418 120.35 11.6426C120.623 11.916 120.76 12.2852 120.76 12.75V27.1465C120.76 27.5566 120.623 27.9121 120.35 28.2129C120.076 28.5137 119.721 28.6641 119.283 28.6641C118.846 28.6641 118.477 28.5137 118.176 28.2129C117.875 27.9121 117.725 27.5566 117.725 27.1465V12.75ZM121.088 6.14648C121.088 6.63867 120.924 7.04883 120.596 7.37695C120.268 7.70508 119.857 7.86914 119.365 7.86914H119.16C118.668 7.86914 118.258 7.70508 117.93 7.37695C117.629 7.04883 117.479 6.63867 117.479 6.14648V6.02344C117.479 5.53125 117.643 5.12109 117.971 4.79297C118.299 4.46484 118.695 4.30078 119.16 4.30078H119.365C119.857 4.30078 120.268 4.46484 120.596 4.79297C120.924 5.12109 121.088 5.53125 121.088 6.02344V6.14648ZM133.762 11.0273C136.359 11.0273 138.451 11.8477 140.037 13.4883C141.623 15.1562 142.389 17.3027 142.334 19.9277C142.334 22.5801 141.568 24.7266 140.037 26.3672C138.451 28.0078 136.359 28.8281 133.762 28.8281C131.137 28.8281 129.059 28.0078 127.527 26.3672C125.941 24.7266 125.148 22.5801 125.148 19.9277C125.148 17.248 125.941 15.1016 127.527 13.4883C129.059 11.8477 131.137 11.0273 133.762 11.0273ZM129.988 24.6855C130.535 25.1504 131.137 25.4922 131.793 25.7109C132.477 25.9297 133.133 26.0391 133.762 26.0391C134.391 26.0391 135.033 25.9297 135.689 25.7109C136.346 25.4922 136.947 25.1367 137.494 24.6445C138.697 23.5508 139.299 21.9648 139.299 19.8867C139.299 17.8633 138.697 16.291 137.494 15.1699C136.482 14.2402 135.238 13.7891 133.762 13.8164C131.328 13.8164 129.646 14.9102 128.717 17.0977C128.389 17.8906 128.225 18.834 128.225 19.9277C128.225 21.0215 128.389 21.9648 128.717 22.7578C129.045 23.5508 129.469 24.1934 129.988 24.6855Z" fill="white"/>
</svg>
