<svg width="144" height="52" viewBox="0 0 144 52" fill="none" xmlns="http://www.w3.org/2000/svg">
<path d="M18.1245 14.7153C18.8722 12.4282 22.1278 12.4282 22.8755 14.7153L26.0026 24.2807C26.3369 25.3035 27.2959 25.996 28.378 25.996H38.4975C40.9171 25.996 41.9231 29.0732 39.9656 30.4867L31.7788 36.3984C30.9034 37.0306 30.5371 38.1511 30.8714 39.1739L33.9985 48.7392C34.7462 51.0263 32.1124 52.9281 30.155 51.5146L21.9681 45.6029C21.0927 44.9708 19.9073 44.9708 19.0319 45.6029L10.845 51.5146C8.88756 52.9281 6.25377 51.0263 7.00147 48.7392L10.1286 39.1739C10.4629 38.1511 10.0966 37.0306 9.22122 36.3984L1.03438 30.4867C-0.923106 29.0732 0.0829033 25.996 2.50249 25.996H12.622C13.7041 25.996 14.6631 25.3035 14.9974 24.2807L18.1245 14.7153Z" fill="white"/>
<path d="M26.1245 14.7153C26.8722 12.4282 30.1278 12.4282 30.8755 14.7153L34.0026 24.2807C34.3369 25.3035 35.2959 25.996 36.378 25.996H46.4975C48.9171 25.996 49.9231 29.0732 47.9656 30.4867L39.7788 36.3984C38.9034 37.0306 38.5371 38.1511 38.8714 39.1739L41.9985 48.7392C42.7462 51.0263 40.1124 52.9281 38.155 51.5146L29.9681 45.6029C29.0927 44.9708 27.9073 44.9708 27.0319 45.6029L18.845 51.5146C16.8876 52.9281 14.2538 51.0263 15.0015 48.7392L18.1286 39.1739C18.4629 38.1511 18.0966 37.0306 17.2212 36.3984L9.03438 30.4867C7.07689 29.0732 8.0829 25.996 10.5025 25.996H20.622C21.7041 25.996 22.6631 25.3035 22.9974 24.2807L26.1245 14.7153Z" fill="white" fill-opacity="0.75"/>
<path d="M71.9922 18.375C72.4023 18.375 72.7578 18.5254 73.0586 18.8262C73.3867 19.127 73.5508 19.4961 73.5508 19.9336V34.248C73.5508 37.1738 72.8125 39.334 71.3359 40.7285C70.1875 41.7949 68.6152 42.3281 66.6191 42.3281C64.9785 42.3281 63.4883 41.9453 62.1484 41.1797C61.6562 40.9062 61.4102 40.5508 61.4102 40.1133C61.4102 39.6484 61.5195 39.2793 61.7383 39.0059C61.9844 38.7324 62.2578 38.5957 62.5586 38.5957C62.8594 38.5957 63.1738 38.6641 63.502 38.8008C64.3496 39.2109 65.1699 39.4297 65.9629 39.457C66.7559 39.457 67.3984 39.4023 67.8906 39.293C68.3828 39.1562 68.8203 38.9102 69.2031 38.5547C70.0508 37.7344 70.4746 36.3809 70.4746 34.4941V19.9336C70.4746 19.5234 70.625 19.168 70.9258 18.8672C71.2266 18.5391 71.582 18.375 71.9922 18.375ZM92.2129 24.6914C92.6504 24.6914 93.0059 24.8418 93.2793 25.1426C93.5801 25.4434 93.7305 25.7578 93.7305 26.0859C93.7305 26.4141 93.6895 26.6602 93.6074 26.8242L84.4609 48.8496C84.1875 49.5605 83.7227 49.916 83.0664 49.916C82.6836 49.916 82.3418 49.7656 82.041 49.4648C81.7676 49.1641 81.6309 48.8633 81.6309 48.5625C81.6309 48.2891 81.6582 48.0566 81.7129 47.8652L83.8867 42.2461L77.5703 26.8652C77.4883 26.6465 77.4473 26.3867 77.4473 26.0859C77.4473 25.7578 77.584 25.4434 77.8574 25.1426C78.1582 24.8418 78.4863 24.6914 78.8418 24.6914C79.5801 24.6914 80.0859 25.0059 80.3594 25.6348L85.5273 38.4727L90.8184 25.6758C91.0918 24.9922 91.5566 24.6641 92.2129 24.6914ZM105.748 27.3574C103.779 27.3574 101.934 28.4375 100.211 30.5977V40.6465C100.211 41.0566 100.061 41.4121 99.7598 41.7129C99.459 42.0137 99.1035 42.1641 98.6934 42.1641C98.2832 42.1641 97.9277 42.0137 97.627 41.7129C97.3262 41.4121 97.1758 41.0566 97.1758 40.6465V26.25C97.1758 25.8125 97.3125 25.4434 97.5859 25.1426C97.8867 24.8418 98.2559 24.6914 98.6934 24.6914C99.1035 24.6914 99.459 24.8418 99.7598 25.1426C100.061 25.416 100.211 25.7852 100.211 26.25V27.6445C101.113 26.7148 101.893 26.0449 102.549 25.6348C103.807 24.8965 105.01 24.5273 106.158 24.5273C107.334 24.5273 108.291 24.7051 109.029 25.0605C109.768 25.3887 110.396 25.8672 110.916 26.4961C111.955 27.7266 112.475 29.2578 112.475 31.0898V40.6465C112.475 41.0566 112.324 41.4121 112.023 41.7129C111.723 42.0137 111.367 42.1641 110.957 42.1641C110.547 42.1641 110.191 42.0137 109.891 41.7129C109.59 41.4121 109.439 41.0566 109.439 40.6465V31.418C109.439 30.1602 109.152 29.1758 108.578 28.4648C108.004 27.7266 107.061 27.3574 105.748 27.3574ZM117.725 26.25C117.725 25.7852 117.875 25.416 118.176 25.1426C118.477 24.8418 118.846 24.6914 119.283 24.6914C119.721 24.6914 120.076 24.8418 120.35 25.1426C120.623 25.416 120.76 25.7852 120.76 26.25V40.6465C120.76 41.0566 120.623 41.4121 120.35 41.7129C120.076 42.0137 119.721 42.1641 119.283 42.1641C118.846 42.1641 118.477 42.0137 118.176 41.7129C117.875 41.4121 117.725 41.0566 117.725 40.6465V26.25ZM121.088 19.6465C121.088 20.1387 120.924 20.5488 120.596 20.877C120.268 21.2051 119.857 21.3691 119.365 21.3691H119.16C118.668 21.3691 118.258 21.2051 117.93 20.877C117.629 20.5488 117.479 20.1387 117.479 19.6465V19.5234C117.479 19.0312 117.643 18.6211 117.971 18.293C118.299 17.9648 118.695 17.8008 119.16 17.8008H119.365C119.857 17.8008 120.268 17.9648 120.596 18.293C120.924 18.6211 121.088 19.0312 121.088 19.5234V19.6465ZM133.762 24.5273C136.359 24.5273 138.451 25.3477 140.037 26.9883C141.623 28.6562 142.389 30.8027 142.334 33.4277C142.334 36.0801 141.568 38.2266 140.037 39.8672C138.451 41.5078 136.359 42.3281 133.762 42.3281C131.137 42.3281 129.059 41.5078 127.527 39.8672C125.941 38.2266 125.148 36.0801 125.148 33.4277C125.148 30.748 125.941 28.6016 127.527 26.9883C129.059 25.3477 131.137 24.5273 133.762 24.5273ZM129.988 38.1855C130.535 38.6504 131.137 38.9922 131.793 39.2109C132.477 39.4297 133.133 39.5391 133.762 39.5391C134.391 39.5391 135.033 39.4297 135.689 39.2109C136.346 38.9922 136.947 38.6367 137.494 38.1445C138.697 37.0508 139.299 35.4648 139.299 33.3867C139.299 31.3633 138.697 29.791 137.494 28.6699C136.482 27.7402 135.238 27.2891 133.762 27.3164C131.328 27.3164 129.646 28.4102 128.717 30.5977C128.389 31.3906 128.225 32.334 128.225 33.4277C128.225 34.5215 128.389 35.4648 128.717 36.2578C129.045 37.0508 129.469 37.6934 129.988 38.1855Z" fill="white"/>
</svg>
